<?xml version="1.0" standalone="no"?><!DOCTYPE svg PUBLIC "-//W3C//DTD SVG 1.1//EN" "http://www.w3.org/Graphics/SVG/1.1/DTD/svg11.dtd"><svg t="1705133423955" class="icon" viewBox="0 0 1024 1024" version="1.1" xmlns="http://www.w3.org/2000/svg" p-id="7393" data-spm-anchor-id="a313x.search_index.0.i1.4ef33a81zdPjvc" xmlns:xlink="http://www.w3.org/1999/xlink" width="128" height="128"><path d="M828.122905 90.82456a41.575398 55.843877 9 1 0-17.471814 110.312693 41.575398 55.843877 9 1 0 17.471814-110.312693Z" fill="#7FCDF3" p-id="7394"></path><path d="M815.525003 228.559321a57.162482 57.162482 0 0 1-9.22654-0.713424c-37.419088-5.927569-61.981784-47.427934-54.822943-92.622113 3.367853-21.261265 13.243855-40.369957 27.817385-53.752807 15.577244-14.220508 34.355055-20.338734 53.063984-17.375564 18.710159 2.9644 34.678556 14.5846 44.977692 32.903606 9.724707 17.232879 13.213104 38.457243 9.845251 59.718507-3.367853 21.260035-13.243855 40.369957-27.817385 53.752807-12.967096 11.8945-28.26635 18.064387-43.837444 18.088988z m7.803382-138.121343c-8.836617-0.029521-17.785168 3.783607-25.653742 11.00518-10.056818 9.242531-16.94382 22.846788-19.368231 38.154653-4.810692 30.372181 9.729627 58.081322 32.326717 61.660743 10.327427 1.635955 21.1358-2.132892 30.450903-10.620177 10.056818-9.242531 16.94382-22.846788 19.368231-38.154653 2.424411-15.307865 0.059042-30.252867-6.629923-42.271601-6.114536-10.931377-15.230372-17.85528-25.678343-19.509686-1.599054-0.129154-3.198108-0.258309-4.815612-0.264459z" fill="#1C1B55" p-id="7395"></path><path d="M627.511953 218.773112c-3.722105 0.039361-7.372868-1.525251-9.987936-4.447829-5.016109-5.572087-4.591744-14.071673 0.858569-19.102542l65.976958-59.936225c2.923808-2.615068 6.795978-3.87463 10.70259-3.394914l69.102493 8.483595a13.491094 13.491094 0 0 1 11.780106 15.079077 13.491094 13.491094 0 0 1-15.079077 11.780106l-62.996568-7.7345-61.379063 55.790985c-2.38997 2.308788-5.637279 3.521608-8.978072 3.482247z" fill="#1C1B55" p-id="7396"></path><path d="M308.750281 27.176997a41.452393 55.720873 5 1 1-9.712788 111.017677 41.452393 55.720873 5 1 1 9.712788-111.017677Z" fill="#7FCDF3" p-id="7397"></path><path d="M301.847316 165.356948c-1.726824-0.026136-3.452127-0.054563-5.167474-0.204456-37.619367-3.29181-65.014907-42.97758-61.037934-88.438007 3.977123-45.461648 37.848959-79.787272 75.467104-76.495612 18.869881 1.650198 35.488481 12.117801 47.040501 29.674099 10.903158 16.512468 15.873157 37.320473 13.986256 58.885225-1.875873 21.444657-10.3946 41.196265-23.99873 55.563394-13.040643 13.552711-29.250733 21.024255-46.289723 21.015357z m-39.248172-86.284297c-2.679538 30.634374 13.646922 57.127159 36.437793 59.121234 10.416907 0.912209 20.936097-3.600979 29.503446-12.605787 9.387539-9.92155 15.297695-23.850345 16.648107-39.289534 1.350561-15.440409-2.050315-30.184047-9.573308-41.584616-6.861733-10.477907-16.44865-16.62578-26.864336-17.537838-22.669556-1.982897-43.470944 21.262318-46.151702 51.896541z" fill="#1C1B55" p-id="7398"></path><path d="M278.363434 34.883423a25.215848 11.070372 62 1 1 23.676246 44.528544 25.215848 11.070372 62 1 1-23.676246-44.528544Z" fill="#D4F1FF" p-id="7399"></path><path d="M474.414493 199.975597c-4.333017-0.036316-8.670361-2.056009-11.28782-5.971301l-46.058292-68.982391-62.997037-7.735064c-7.447324-0.914416-12.69507-7.631224-11.780653-15.078548s7.631224-12.69507 15.078548-11.780653L426.47064 98.912225c3.906793 0.479694 7.359545 2.638629 9.563608 5.883522L485.551784 178.912139c4.193931 6.215632 2.427068 14.549712-3.788565 18.743644-2.056166 1.606453-4.739922 2.268352-7.348726 2.319814z" fill="#1C1B55" p-id="7400"></path><path d="M470.099872 809.419287c116.593159 14.315221 225.001623-86.387034 242.015555-224.956112s33.876569-255.716986-174.892199-281.351048C328.45323 277.478066 306.706099 394.026943 289.693397 532.596021 272.679465 671.165099 353.505482 795.101606 470.099872 809.419287z" fill="#FFFFFF" p-id="7401"></path><path d="M492.512455 837.823402c-8.558628 0.065192-17.165227-0.495707-25.711554-1.544932-64.217999-7.884565-120.686737-44.561938-159.231313-103.078695-37.886504-57.816864-53.774948-130.283519-44.735374-203.901494 5.996452-48.835102 10.484872-75.300671 17.156617-101.373858 9.471318-36.758556 22.558958-65.637466 40.207592-88.255467 21.771732-27.937929 51.17464-47.378733 87.508831-57.664338 36.350182-10.40861 79.706679-12.272123 132.813715-5.751674 52.498165 6.445417 93.39704 18.531803 125.202218 37.061146 32.385759 18.846694 54.607686 43.758721 67.981926 76.13464 10.70628 25.851779 15.363216 55.547437 14.790017 93.522503-0.460035 26.960046-2.637209 49.742872-8.828007 100.164727l-0.570739 4.639716c-9.053104 73.740979-41.986231 140.088179-92.734047 187.021637-44.826397 41.093221-98.575514 62.997798-153.849882 63.027319z m-9.871082-538.315296c-65.802292-0.024601-111.334733 18.551484-141.062372 56.788549-15.579704 19.898379-26.830892 44.91373-35.40797 78.436047-6.383915 24.745972-10.646008 50.370193-16.477634 97.862089-16.984411 138.32553 63.935089 262.522805 180.406475 276.824496 7.324896 0.89793 14.710064 1.309994 22.01774 1.340745 107.820504-0.022141 204.093381-96.762433 219.997815-226.296857l0.569509-4.639716c6.056724-49.323428 8.281868-71.481393 8.728373-97.327022 0.474796-34.145948-3.488397-60.409791-12.767829-82.739961-22.331401-54.296485-76.803782-85.026608-171.422252-96.644349-19.533057-2.398581-37.722908-3.640922-54.581855-3.604021z" fill="#1C1B55" p-id="7402"></path><path d="M508.560629 501.223324m-70.810623-8.694451a71.342398 71.342398 0 1 0 141.621246 17.388902 71.342398 71.342398 0 1 0-141.621246-17.388902Z" fill="#FFF7A6" p-id="7403" data-spm-anchor-id="a313x.search_index.0.i2.4ef33a81zdPjvc"></path><path d="M508.622306 599.629585a97.596401 97.596401 0 0 1-12.054405-0.736795c-53.84014-6.610242-92.287542-55.821736-85.6773-109.661876 6.611472-53.84014 55.821736-92.288772 109.661876-85.6773 26.126078 3.207948 49.423061 16.35463 65.594415 37.052535 16.171354 20.699136 23.292063 46.483263 20.084116 72.609341-6.116996 49.811754-48.664126 86.475597-97.608702 86.414095z m-0.095943-169.792448c-35.441181-0.01476-66.33982 26.554133-70.776579 62.691518-4.797161 39.068573 23.048515 74.707791 62.117088 79.504952 39.066113 4.797161 74.707791-23.048515 79.504953-62.115858 2.322318-18.922956-2.814335-37.647876-14.609201-52.603948-11.781336-15.079077-28.583701-24.577456-47.507887-26.901004-2.929958-0.360402-5.874677-0.5978-8.728374-0.57566z" fill="#1C1B55" p-id="7404"></path><path d="M478.358369 749.212453c24.647569 3.150136 41.967781 25.600851 38.95418 50.140175L499.893933 941.218217c-2.998841 24.417551-25.204777 41.767284-49.622328 38.769674l-0.244778-0.030752c-24.646338-3.148906-41.965321-25.600851-38.95295-50.140175l17.418616-141.865589c2.998841-24.416321 25.204777-41.767284 49.622328-38.768443l0.244778 0.029521z" fill="#7FCDF3" p-id="7405"></path><path d="M455.824012 1007.437493c-2.97547 0.00615-5.920189-0.231248-8.850148-0.59042l-0.488326-0.061502c-39.160826-5.05547-67.082765-41.076001-62.270844-80.266348l17.418616-141.865589c2.324778-18.922956 11.974453-35.955339 26.931755-47.751435 15.077847-11.780106 33.801536-16.916759 52.847497-14.57845l0.366552 0.044282c39.159596 5.05547 67.204539 41.093221 62.392617 80.282338l-17.418615 141.865589c-2.324778 18.924186-11.974453 35.956569-26.931755 47.751435-12.732158 9.837871-28.131046 15.135659-43.998579 15.1701z m16.753163-258.563301c-9.917823 0.022141-19.492465 3.307581-27.305688 9.412276-9.321253 7.281845-15.325085 17.823299-16.777764 29.664907l-17.419846 141.865589c-3.013601 24.539325 14.428385 47.0048 38.95295 50.140175l0.123004 0.014761c11.964612 1.469899 23.643855-1.805701 32.965108-9.087545 9.321253-7.283075 15.325085-17.823299 16.777764-29.666138l17.419846-141.865589c3.013601-24.539325-14.428385-47.0048-38.95295-50.140175l-0.123004-0.01476a42.317112 42.317112 0 0 0-5.66065-0.323501z" fill="#1C1B55" p-id="7406"></path><path d="M417.336018 688.058487c43.12279-66.582138 111.980504-58.128064 137.714199 16.909379 16.874937 49.287757 12.18971 90.476921-14.071673 123.688038-0.745405 1.023394-2.041869 1.48343-3.383844 1.318604L404.030661 813.576827a3.86602 3.86602 0 0 1-2.9644-2.099681c-17.323902-38.561796-11.89081-79.781712 16.269757-123.417429z" fill="#D4F1FF" p-id="7407"></path><path d="M538.111318 857.055098c-1.236192-0.028291-2.472383-0.056582-3.692584-0.205417l-133.685814-16.414902c-10.621407-1.303844-19.94266-8.149024-24.327758-17.85897-21.447001-47.371352-15.286954-97.548429 18.211992-149.32702 26.000614-40.182991 63.928939-61.427035 101.409529-56.82422 37.48059 4.601585 69.143084 34.390726 84.651446 79.669778 19.975871 58.343321 13.814594 108.521628-18.455541 149.297499-5.751673 7.472501-14.819538 11.687853-24.11127 11.663252z m-52.400992-214.137898c-24.914488 0.039361-49.565746 16.097551-68.252534 45.157278-28.145806 43.512713-33.62318 85.099181-16.268527 123.417429 0.474796 1.173459 1.621194 1.933625 2.9644 2.09845l133.684584 16.414902c1.221431 0.150065 2.532655-0.432975 3.385073-1.319835 26.123618-33.102873 30.854357-74.65736 14.071673-123.686807-12.20816-35.827414-34.989756-58.205557-62.337265-61.56357-2.548646-0.436665-4.883264-0.59903-7.247404-0.516617z" fill="#1C1B55" p-id="7408"></path><path d="M500.377339 645.58639c25.916971 33.171755 38.923428 64.511979 39.063653 93.651658s-6.477398 58.814427-19.563807 88.685981l23.684446 2.907818c10.623867-18.895895 16.905688-34.731447 18.601915-47.534948 2.612608-19.259987 1.405937-33.660081-0.90162-49.186894-3.482247-23.106327-12.986777-50.669093-32.469402-71.649908-5.168634-5.34453-14.518178-10.954748-28.413955-16.873707zM377.24774 215.42002l6.472478-21.172702 323.479964 98.883024-6.472478 21.172702z" fill="#7FCDF3" p-id="7409"></path><path d="M732.310246 316.036172l-389.459382-47.819088 9.294192-75.694284L741.603208 240.340657l-9.292962 75.694285z m-359.301228-71.38053l335.739786 41.223606 2.69748-21.975919-335.739786-41.223605-2.69748 21.975918z" fill="#1C1B55" p-id="7410"></path><path d="M488.592313 194.528997l112.319996 13.791224a15.958556 15.958556 0 0 1 13.921608 17.819609l-12.890834 104.995099a15.958556 15.958556 0 0 1-17.820839 13.922838L471.802249 331.265314a15.958556 15.958556 0 0 1-13.922838-17.820839l12.892063-104.9951a15.958556 15.958556 0 0 1 17.819609-13.921608z" fill="#D4F1FF" p-id="7411"></path><path d="M597.824905 373.755862c-1.236192-0.027061-2.349379-0.040591-3.57081-0.190656l-139.179179-17.088965c-16.116002-1.977906-27.682081-16.782684-25.702944-32.898686l16.188575-131.854282c1.980367-16.114772 16.783914-27.682081 32.898686-25.702944l139.179178 17.088964c7.814453 0.959432 14.765416 4.911555 19.705262 11.094973 4.820532 6.168657 6.958344 13.99049 5.998912 21.803713l-16.189804 131.854283c-1.829071 14.895801-14.58952 25.968633-29.327876 25.8936z m-122.906962-180.905871c-1.236192-0.028291-2.348149 0.950822-2.496983 2.171023L456.229925 326.875296a2.467463 2.467463 0 0 0 2.141502 2.742992l139.179179 17.087735c0.854879 0.105784 1.388717-0.200497 1.79955-0.522768 0.410834-0.319811 0.836428-0.763856 0.942212-1.618734l16.189804-131.854283c0.104554-0.854879-0.201727-1.387487-0.522767-1.79955-0.321041-0.410834-0.765086-0.836428-1.618735-0.942212l-139.179178-17.088964-0.246009-0.029521z" fill="#1C1B55" p-id="7412"></path><path d="M273.226834 222.613301l86.681013 10.643548" fill="#FFFFFF" p-id="7413"></path><path d="M270.918046 230.506477l6.54751-26.256463 84.735088 21.13088-6.54751 26.255233z" fill="#1C1B55" p-id="7414"></path><path d="M533.229929 270.028651m-44.561857-5.471508a44.896509 44.896509 0 1 0 89.123715 10.943016 44.896509 44.896509 0 1 0-89.123715-10.943016Z" fill="#FFF7A6" p-id="7415"></path><path d="M533.250498 328.401205c-2.349639-0.040644-4.821366-0.096278-7.141024-0.381096-15.505085-1.903785-29.29894-9.669923-38.937656-22.006918S473.334686 278.41328 475.238471 262.908195c3.927493-31.986868 33.125047-54.798496 65.111914-50.871003s54.798496 33.125047 50.871003 65.111914c-3.627685 29.545122-28.860647 51.356406-57.97089 51.252099z m-0.012695-89.72534c-15.607854-0.057485-29.191374 11.658878-31.14013 27.530225-1.019349 8.301935 1.317619 16.520263 6.458268 23.099993 5.140649 6.57973 12.549493 10.835475 20.851428 11.854824 17.092219 2.098661 32.841166-10.09539 34.954817-27.309696S554.266796 241.010045 537.05249 238.896394c-1.34296-0.164895-2.578823-0.192712-3.814687-0.220529z" fill="#1C1B55" p-id="7416"></path><path d="M712.740288 276.577675l86.682244 10.644778" fill="#FFFFFF" p-id="7417"></path><path d="M710.442571 284.492991l6.54751-26.255232 84.733858 21.12965-6.54628 26.256463z" fill="#1C1B55" p-id="7418"></path><path d="M717.27545 984.515673l-73.354745-0.083643-0.028291-27.020318 30.482884 0.0246-74.658589-157.012318 24.477822-11.61774z" fill="#1C1B55" p-id="7419"></path><path d="M573.57341 824.602917l56.497029 28.377054" fill="#FFFFFF" p-id="7420"></path><path d="M630.008937 866.603909a13.272146 13.272146 0 0 1-6.014902-1.4822l-56.495799-28.377054c-6.659444-3.296511-9.377835-11.436924-5.94479-18.204612 3.296511-6.658214 11.436924-9.376605 18.204612-5.943559l56.495799 28.377054c6.659444 3.296511 9.377835 11.436924 5.94356 18.204612a13.840425 13.840425 0 0 1-12.18971 7.425759z" fill="#1C1B55" p-id="7421"></path><path d="M518.955884 622.461612c33.684682 6.24246 56.175988 20.902093 67.606762 43.868195 11.432004 22.967332 19.04104 48.811731 22.932891 77.668501 26.554133-31.562861 44.275338-55.783605 53.194368-72.905781 25.5701-48.7859 34.166859-94.575419 36.762246-135.897428s2.268196-93.163332-16.849106-135.291018c-7.205582-16.002838-26.458189-35.840945-57.740601-59.634865l1.694997-13.796143c36.59988 13.788764 61.987934 35.123831 76.438459 63.789944 21.605676 43.053907 21.260035 80.190086 17.614192 137.121319-5.233826 104.199263-39.527379 182.64884-103.018423 235.454515l-29.049886 20.598272c2.129202-17.336203 2.602767-31.282412 1.419468-41.837396-2.923808-25.640212-12.256132-44.507816-17.341123-60.622588-6.345783-19.988172-24.145712-39.523689-53.664244-58.515527z" fill="#D4F1FF" p-id="7422"></path><path d="M368.480006 420.820934c-9.901833 28.155646-16.36447 58.59056-19.405133 91.428974m-1.660556 56.927543c0.28906 6.728326 0.863489 18.199692 1.996358 34.2013" fill="#FFFFFF" p-id="7423"></path><path d="M349.363933 616.880915c-7.064127 0-13.08764-5.447853-13.438202-12.679267-1.011094-15.986847-1.677776-27.717752-1.952075-34.566621-0.321041-7.476191 5.522886-13.69774 12.999077-14.020012 0.121774 0.015991 0.365322 0.045512 0.503087-0.061502 7.185902 0.01476 13.300437 5.722152 13.515694 13.060579 0.30382 6.605322 0.89301 17.954914 1.918864 33.819987 0.444045 7.490952-5.172324 13.865026-12.676806 14.430845-0.366552-0.045512-0.626091 0.046742-0.869639 0.017221z m-0.350562-91.005839c-0.366552-0.044281-0.869639 0.017221-1.357965-0.041822-7.478651-0.670373-12.862542-7.280615-12.19217-14.758036 3.161206-33.816297 10.033447-65.564894 20.176368-94.682433 2.472383-7.007546 10.243784-10.762862 17.25256-8.290478 7.008776 2.471153 10.762862 10.243784 8.290479 17.25256-9.385215 26.978497-15.75683 56.682765-18.770431 88.286217-0.610101 6.989095-6.457717 12.219231-13.398841 12.233992z" fill="#1C1B55" p-id="7424"></path><path d="M413.22768 859.666476l29.15198 4.059136" fill="#FFFFFF" p-id="7425"></path><path d="M412.088661 868.10948l2.409651-17.050833 29.110159 4.112028-2.409651 17.052063z" fill="#1C1B55" p-id="7426"></path><path d="M408.307514 891.647551l29.15198 4.059136" fill="#FFFFFF" p-id="7427"></path><path d="M407.169726 900.091785l2.409651-17.052063 29.108929 4.112028-2.408421 17.052063z" fill="#1C1B55" p-id="7428"></path><path d="M403.387349 926.088709l29.15198 4.059136" fill="#FFFFFF" p-id="7429"></path><path d="M402.250791 934.532943l2.409651-17.052064 29.108928 4.113259-2.408421 17.052063z" fill="#1C1B55" p-id="7430"></path><path d="M479.649913 938.389122l29.151979 4.059137" fill="#FFFFFF" p-id="7431"></path><path d="M478.514584 946.830896l2.408421-17.052063 29.110159 4.113258-2.409651 17.052063z" fill="#1C1B55" p-id="7432"></path><path d="M485.800119 903.947964l29.15198 4.059137" fill="#FFFFFF" p-id="7433"></path><path d="M484.663561 912.389738l2.408421-17.052063 29.110159 4.112028-2.408421 17.052063z" fill="#1C1B55" p-id="7434"></path><path d="M491.950326 870.736848l29.15198 4.059137" fill="#FFFFFF" p-id="7435"></path><path d="M490.812538 879.177392l2.408421-17.052063 29.110158 4.113258-2.408421 17.052063z" fill="#1C1B55" p-id="7436"></path></svg>